<svg width="216" height="66" viewBox="0 0 216 66" fill="none" xmlns="http://www.w3.org/2000/svg">
<path d="M2.016 54V53.184L5.76 49.2L4.992 50.544V32.016L7.056 35.328H1.152V34.272L4.992 29.664V28.944C4.992 26.576 5.584 24.48 6.768 22.656C7.952 20.8 9.584 19.344 11.664 18.288C13.744 17.232 16.128 16.704 18.816 16.704C22.304 16.704 25.008 17.2 26.928 18.192C28.88 19.152 29.856 20.512 29.856 22.272C29.856 23.456 29.312 24.416 28.224 25.152C27.168 25.856 25.792 26.208 24.096 26.208H23.328L18.048 18.48H23.568L23.616 23.184C22.624 21.008 21.008 19.92 18.768 19.92C17.008 19.92 15.568 20.624 14.448 22.032C13.328 23.408 12.768 25.2 12.768 27.408V50.592L12 49.248L15.744 53.184V54H2.016ZM20.832 54V53.184L24.576 49.2L23.808 50.544V33.504L25.872 36.336L9.936 34.512V31.296L30.096 29.616H31.584V50.592L30.816 49.248L34.56 53.184V54H20.832ZM47.5515 54.72C45.9515 54.72 44.5275 54.368 43.2795 53.664C42.0635 52.96 41.1035 51.984 40.3995 50.736C39.7275 49.488 39.3915 48.032 39.3915 46.368V31.824L41.4555 35.376H35.1675V34.272L45.6795 22.992H47.1675V44.496C47.1675 46.256 47.4555 47.568 48.0315 48.432C48.6395 49.264 49.5835 49.68 50.8635 49.68C52.4315 49.68 53.7595 49.024 54.8475 47.712L56.4315 48.576C55.9195 50.464 54.8635 51.968 53.2635 53.088C51.6955 54.176 49.7915 54.72 47.5515 54.72ZM54.2235 35.856L44.6235 33.936V31.392L54.0315 29.136H54.9915V35.28L54.2235 35.856ZM70.2225 54.72C67.7905 54.72 65.6305 54.224 63.7425 53.232C61.8865 52.24 60.4305 50.864 59.3745 49.104C58.3185 47.312 57.7905 45.28 57.7905 43.008C57.7905 40.352 58.3665 38.016 59.5185 36C60.7025 33.952 62.3345 32.352 64.4145 31.2C66.4945 30.048 68.8945 29.472 71.6145 29.472C73.2785 29.472 74.9105 29.68 76.5105 30.096C78.1105 30.512 79.5025 31.088 80.6865 31.824L77.7585 38.784H76.5105L70.9425 31.248H75.2145V34.128C74.3185 33.168 73.1185 32.688 71.6145 32.688C70.5265 32.688 69.5505 33.072 68.6865 33.84C67.8225 34.576 67.1345 35.584 66.6225 36.864C66.1105 38.144 65.8545 39.616 65.8545 41.28C65.8545 43.904 66.4945 45.984 67.7745 47.52C69.0865 49.056 70.8625 49.824 73.1025 49.824C75.4705 49.824 77.4865 48.976 79.1505 47.28L80.6865 48.432C79.7585 50.384 78.3665 51.92 76.5105 53.04C74.6545 54.16 72.5585 54.72 70.2225 54.72ZM99.4845 54V53.184L102.845 49.2L102.125 50.544V39.6C102.125 37.872 101.789 36.624 101.117 35.856C100.445 35.056 99.3565 34.656 97.8525 34.656C96.7645 34.656 95.7725 34.832 94.8765 35.184C93.9805 35.536 93.1485 36.08 92.3805 36.816V34.032H92.9085C95.7885 30.928 98.8765 29.376 102.173 29.376C104.605 29.376 106.493 30.128 107.837 31.632C109.213 33.104 109.901 35.152 109.901 37.776V50.592L109.133 49.248L112.877 53.184V54H99.4845ZM82.3485 54V53.184L86.0925 49.2L85.3245 50.544V23.376L87.3885 27.168L82.0125 21.744V20.688L91.6125 17.28H93.1005V50.592L92.3805 49.2L95.7885 53.184V54H82.3485ZM127.504 54.72C125.072 54.72 122.912 54.224 121.024 53.232C119.168 52.24 117.712 50.864 116.656 49.104C115.6 47.312 115.072 45.28 115.072 43.008C115.072 40.352 115.632 38.016 116.752 36C117.904 33.952 119.488 32.352 121.504 31.2C123.52 30.048 125.84 29.472 128.464 29.472C130.544 29.472 132.368 29.984 133.936 31.008C135.504 32 136.736 33.44 137.632 35.328C138.528 37.216 138.976 39.456 138.976 42.048H120.64V40.32L131.056 38.496C131.056 36.608 130.72 35.184 130.048 34.224C129.408 33.232 128.544 32.736 127.456 32.736C126.592 32.736 125.824 33.088 125.152 33.792C124.512 34.464 124.016 35.456 123.664 36.768C123.312 38.048 123.136 39.552 123.136 41.28C123.136 43.904 123.776 45.984 125.056 47.52C126.368 49.056 128.128 49.824 130.336 49.824C132.992 49.824 135.152 48.976 136.816 47.28L138.304 48.432C137.376 50.384 135.952 51.92 134.032 53.04C132.144 54.16 129.968 54.72 127.504 54.72ZM154.879 54.72C152.447 54.72 150.287 54.224 148.399 53.232C146.543 52.24 145.087 50.864 144.031 49.104C142.975 47.312 142.447 45.28 142.447 43.008C142.447 40.352 143.023 38.016 144.175 36C145.359 33.952 146.991 32.352 149.071 31.2C151.151 30.048 153.551 29.472 156.271 29.472C157.935 29.472 159.567 29.68 161.167 30.096C162.767 30.512 164.159 31.088 165.343 31.824L162.415 38.784H161.167L155.599 31.248H159.871V34.128C158.975 33.168 157.775 32.688 156.271 32.688C155.183 32.688 154.207 33.072 153.343 33.84C152.479 34.576 151.791 35.584 151.279 36.864C150.767 38.144 150.511 39.616 150.511 41.28C150.511 43.904 151.151 45.984 152.431 47.52C153.743 49.056 155.519 49.824 157.759 49.824C160.127 49.824 162.143 48.976 163.807 47.28L165.343 48.432C164.415 50.384 163.023 51.92 161.167 53.04C159.311 54.16 157.215 54.72 154.879 54.72Z" fill="#C0A5F5"/>
<path d="M200.455 25.4558C202.827 25.4558 204.75 27.5953 204.75 30.2348C204.75 32.874 202.827 35.0138 200.455 35.0138C199.338 35.0138 198.321 34.6103 197.557 33.9081C196.094 32.5633 194.621 30.5534 192.723 30.5534H192.083M192.083 30.5534C192.102 32.1993 191.645 33.8516 190.709 35.2401L187.5 40M192.083 30.5534C192.064 28.921 191.576 27.2951 190.623 25.9397L179.393 9.97445C177.379 7.11224 173.25 8.69622 173.25 12.3307V49.6694C173.25 53.3436 177.454 54.9026 179.435 51.9632L182.95 46.75" stroke="#C0A5F5" stroke-width="6" stroke-linecap="round"/>
<path d="M187 41L205 54" stroke="#C0A5F5" stroke-width="6" stroke-linecap="round"/>
</svg>
