<svg width="50" height="50" viewBox="0 0 50 50" fill="none" xmlns="http://www.w3.org/2000/svg">
<path d="M14.7778 7V10.8889M34.2222 7V10.8889M13.2222 42H35.7778C37.9557 42 39.0448 42 39.8767 41.5761C40.6084 41.2034 41.2034 40.6084 41.5761 39.8767C42 39.0448 42 37.9557 42 35.7778V17.1111C42 14.9331 42 13.8441 41.5761 13.0123C41.2034 12.2805 40.6084 11.6856 39.8767 11.3128C39.0448 10.8889 37.9557 10.8889 35.7778 10.8889H13.2222C11.0442 10.8889 9.95524 10.8889 9.12337 11.3128C8.39162 11.6856 7.7967 12.2805 7.42387 13.0123C7 13.8441 7 14.9331 7 17.1111V35.7778C7 37.9557 7 39.0448 7.42387 39.8767C7.7967 40.6084 8.39162 41.2034 9.12337 41.5761C9.95524 42 11.0442 42 13.2222 42ZM16.7222 33.25L20.6597 32.4625C21.0029 32.3939 21.1746 32.3594 21.3346 32.2966C21.4768 32.241 21.6119 32.1687 21.7369 32.0814C21.8781 31.983 22.0018 31.8593 22.2495 31.6116L30.3333 23.5278C31.4072 22.4539 31.4072 20.7128 30.3333 19.6389C29.2594 18.565 27.5184 18.565 26.4444 19.6389L18.3605 27.7227C18.1129 27.9704 17.9892 28.0941 17.8908 28.2353C17.8035 28.3603 17.7312 28.4954 17.6755 28.6376C17.6127 28.7976 17.5784 28.9693 17.5097 29.3125L16.7222 33.25Z" stroke="white" stroke-width="3" stroke-linecap="round" stroke-linejoin="round"/>
</svg>
