<svg width="50" height="50" viewBox="0 0 50 50" fill="none" xmlns="http://www.w3.org/2000/svg">
<path d="M19.8668 14.3939C19.8668 12.1973 21.8478 10.4166 24.2918 10.4166C26.7355 10.4166 28.7168 12.1973 28.7168 14.3939C28.7168 15.4277 28.3432 16.3694 27.693 17.0767C26.4478 18.4313 24.5868 19.7957 24.5868 21.5531V22.1456M24.5868 22.1456C26.1107 22.1279 27.6407 22.5512 28.9264 23.4179L44.4107 33.856C47.1324 35.6906 45.6889 39.5833 42.2868 39.5833H7.71395C4.34868 39.5833 2.88203 35.76 5.53222 33.8958L20.3149 23.4973C21.5699 22.6145 23.0753 22.1631 24.5868 22.1456Z" stroke="white" stroke-width="3" stroke-linecap="round"/>
</svg>
