<svg width="50" height="50" viewBox="0 0 50 50" fill="none" xmlns="http://www.w3.org/2000/svg">
<path d="M34.375 14.0625H40.775C41.1621 14.0629 41.5353 14.2069 41.8222 14.4667C42.1091 14.7265 42.2894 15.0836 42.3281 15.4687L43.2813 25H40.1375L39.3563 17.1875H34.375V21.875C34.375 22.2894 34.2104 22.6868 33.9174 22.9799C33.6243 23.2729 33.2269 23.4375 32.8125 23.4375C32.3981 23.4375 32.0007 23.2729 31.7077 22.9799C31.4146 22.6868 31.25 22.2894 31.25 21.875V17.1875H18.75V21.875C18.75 22.2894 18.5854 22.6868 18.2924 22.9799C17.9993 23.2729 17.6019 23.4375 17.1875 23.4375C16.7731 23.4375 16.3757 23.2729 16.0827 22.9799C15.7896 22.6868 15.625 22.2894 15.625 21.875V17.1875H10.6406L8.14065 42.1875H25V45.3125H6.41252C6.19428 45.3123 5.97851 45.2664 5.7791 45.1777C5.5797 45.089 5.40108 44.9595 5.25476 44.7976C5.10845 44.6357 4.99767 44.4449 4.92957 44.2375C4.86148 44.0302 4.83757 43.8109 4.85939 43.5938L7.67189 15.4687C7.7106 15.0836 7.89089 14.7265 8.17783 14.4667C8.46477 14.2069 8.83794 14.0629 9.22502 14.0625H15.625V12.9719C15.625 7.55313 19.8 3.125 25 3.125C30.2 3.125 34.375 7.55313 34.375 12.9719V14.0656V14.0625ZM31.25 14.0625V12.9719C31.25 9.24062 28.4313 6.25 25 6.25C21.5688 6.25 18.75 9.24062 18.75 12.9719V14.0656H31.25V14.0625ZM41.0844 37.6875L37.5 34.1062V45.3125C37.5 45.7269 37.3354 46.1243 37.0424 46.4174C36.7493 46.7104 36.3519 46.875 35.9375 46.875C35.5231 46.875 35.1257 46.7104 34.8327 46.4174C34.5396 46.1243 34.375 45.7269 34.375 45.3125V34.1062L30.7938 37.6875C30.6496 37.8367 30.4772 37.9558 30.2866 38.0377C30.096 38.1195 29.8909 38.1627 29.6835 38.1645C29.476 38.1663 29.2702 38.1267 29.0782 38.0482C28.8862 37.9696 28.7117 37.8536 28.565 37.7069C28.4183 37.5602 28.3023 37.3857 28.2237 37.1937C28.1452 37.0017 28.1056 36.7959 28.1074 36.5884C28.1092 36.381 28.1523 36.1759 28.2342 35.9853C28.3161 35.7947 28.4352 35.6223 28.5844 35.4781L34.8344 29.2281C35.1274 28.9352 35.5248 28.7706 35.9391 28.7706C36.3534 28.7706 36.7508 28.9352 37.0438 29.2281L43.2938 35.4781C43.443 35.6223 43.562 35.7947 43.6439 35.9853C43.7258 36.1759 43.7689 36.381 43.7707 36.5884C43.7725 36.7959 43.733 37.0017 43.6544 37.1937C43.5759 37.3857 43.4598 37.5602 43.3131 37.7069C43.1664 37.8536 42.992 37.9696 42.7999 38.0482C42.6079 38.1267 42.4022 38.1663 42.1947 38.1645C41.9872 38.1627 41.7822 38.1195 41.5916 38.0377C41.4009 37.9558 41.2285 37.8367 41.0844 37.6875Z" fill="white"/>
</svg>
