<svg width="30" height="30" viewBox="0 0 30 30" fill="none" xmlns="http://www.w3.org/2000/svg">
<path d="M23.6414 24.7138C22.6321 23.3775 21.3263 22.2938 19.8269 21.5481C18.3274 20.8024 16.6753 20.415 15.0007 20.4165C13.3261 20.415 11.674 20.8024 10.1746 21.5481C8.67514 22.2938 7.36935 23.3775 6.36006 24.7138M23.6414 24.7138C25.6109 22.962 26.9999 20.6528 27.6269 18.0925C28.2539 15.5322 28.0878 12.8419 27.1506 10.3782C26.2135 7.91448 24.5495 5.79387 22.3795 4.29757C20.2095 2.80128 17.6359 2 15 2C12.3641 2 9.79052 2.80128 7.62048 4.29757C5.45045 5.79387 3.78653 7.91448 2.84939 10.3782C1.91224 12.8419 1.74614 15.5322 2.37313 18.0925C3.00012 20.6528 4.39056 22.962 6.36006 24.7138M23.6414 24.7138C21.2639 26.8346 18.1866 28.0045 15.0007 28C11.8143 28.0049 8.73795 26.8349 6.36006 24.7138M19.3341 11.7497C19.3341 12.899 18.8775 14.0012 18.0649 14.8139C17.2522 15.6266 16.15 16.0831 15.0007 16.0831C13.8515 16.0831 12.7493 15.6266 11.9366 14.8139C11.1239 14.0012 10.6674 12.899 10.6674 11.7497C10.6674 10.6004 11.1239 9.49822 11.9366 8.68555C12.7493 7.87288 13.8515 7.41633 15.0007 7.41633C16.15 7.41633 17.2522 7.87288 18.0649 8.68555C18.8775 9.49822 19.3341 10.6004 19.3341 11.7497Z" stroke="black" stroke-width="3" stroke-linecap="round" stroke-linejoin="round"/>
</svg>
