<svg width="50" height="50" viewBox="0 0 50 50" fill="none" xmlns="http://www.w3.org/2000/svg">
<path d="M14.583 19.7917L24.9997 25M14.583 19.7917V30.2084L24.9997 35.4167M14.583 19.7917L24.9997 14.5834L35.4163 19.7917M24.9997 25L35.4163 19.7917M24.9997 25V35.4167M24.9997 35.4167L35.4163 30.2084V19.7917M16.6663 8.33337H12.4997C10.1985 8.33337 8.33301 10.1989 8.33301 12.5V16.6667M16.6663 41.6667H12.4997C10.1985 41.6667 8.33301 39.8013 8.33301 37.5V33.3334M33.333 8.33337H37.4997C39.8009 8.33337 41.6663 10.1989 41.6663 12.5V16.6667M33.333 41.6667H37.4997C39.8009 41.6667 41.6663 39.8013 41.6663 37.5V33.3334" stroke="white" stroke-width="3" stroke-linecap="round" stroke-linejoin="round"/>
</svg>
